<svg width="32" height="32" viewBox="0 0 32 32" fill="none" xmlns="http://www.w3.org/2000/svg">
<path fill-rule="evenodd" clip-rule="evenodd" d="M7.35664 4.40723C6.46014 4.40723 5.74048 5.13365 5.74048 6.02339V25.9768C5.74048 26.8733 6.46691 27.5929 7.35664 27.5929H12.4165C12.8971 27.5929 13.2867 27.9826 13.2867 28.4632C13.2867 28.9438 12.8971 29.3334 12.4165 29.3334H7.35664C5.51134 29.3334 4 27.8402 4 25.9768V6.02339C4 4.17809 5.49324 2.66675 7.35664 2.66675H23.6301C25.4755 2.66675 26.9868 4.15999 26.9868 6.02339V13.8058C26.9868 14.2865 26.5972 14.6761 26.1165 14.6761C25.6359 14.6761 25.2463 14.2865 25.2463 13.8058V6.02339C25.2463 5.12689 24.5199 4.40723 23.6301 4.40723H7.35664Z" fill="#262626"/>
<path fill-rule="evenodd" clip-rule="evenodd" d="M25.9117 18.1756C25.3937 17.6576 24.5648 17.6576 24.0468 18.1756L17.1049 25.1175L16.7931 27.3955L18.8673 27.0848L25.9117 20.0404C26.4297 19.5225 26.4297 18.6935 25.9117 18.1756ZM19.8026 28.5795L19.8866 28.5269L27.1424 21.2712C28.3401 20.0735 28.3401 18.1425 27.1424 16.9449C25.9447 15.7472 24.0138 15.7472 22.8161 16.9449L15.7299 24.0311C15.6346 24.1264 15.5786 24.2242 15.5571 24.2629C15.5289 24.3136 15.5078 24.3603 15.4941 24.3922C15.4796 24.426 15.4682 24.4558 15.4605 24.4767L15.4506 24.5041L15.4473 24.5138L15.4461 24.5175L15.4455 24.5191L15.4451 24.5203C15.4451 24.5204 15.4451 24.5205 16.2706 24.7957L15.4451 24.5203L15.4194 24.5973L15.0639 27.195H15.0487L14.9481 27.9503C14.8448 28.7249 15.516 29.3416 16.2445 29.2376L19.3626 28.7705L19.4032 28.7604C19.5466 28.7245 19.6728 28.6544 19.7013 28.6386C19.7027 28.6378 19.7039 28.6372 19.7048 28.6367C19.7315 28.622 19.7545 28.6085 19.7707 28.5989L19.7913 28.5864L19.7982 28.5822L19.8007 28.5806L19.8026 28.5795Z" fill="#262626"/>
<path fill-rule="evenodd" clip-rule="evenodd" d="M21.2495 18.5115C21.5894 18.1716 22.1404 18.1716 22.4802 18.5115L25.5758 21.6071C25.9156 21.9469 25.9156 22.4979 25.5758 22.8378C25.2359 23.1776 24.6849 23.1776 24.3451 22.8378L21.2495 19.7422C20.9097 19.4023 20.9097 18.8513 21.2495 18.5115Z" fill="#262626"/>
<path fill-rule="evenodd" clip-rule="evenodd" d="M8.96045 8.83289C8.96045 8.35227 9.35007 7.96265 9.83069 7.96265H21.1438C21.6244 7.96265 22.0141 8.35227 22.0141 8.83289C22.0141 9.31351 21.6244 9.70313 21.1438 9.70313H9.83069C9.35007 9.70313 8.96045 9.31351 8.96045 8.83289Z" fill="#1F4DCC"/>
<path fill-rule="evenodd" clip-rule="evenodd" d="M8.96045 12.8734C8.96045 12.3928 9.35007 12.0032 9.83069 12.0032H21.1438C21.6244 12.0032 22.0141 12.3928 22.0141 12.8734C22.0141 13.354 21.6244 13.7437 21.1438 13.7437H9.83069C9.35007 13.7437 8.96045 13.354 8.96045 12.8734Z" fill="#1F4DCC"/>
<path fill-rule="evenodd" clip-rule="evenodd" d="M8.96045 16.9139C8.96045 16.4333 9.35007 16.0437 9.83069 16.0437H15.0646C15.5452 16.0437 15.9348 16.4333 15.9348 16.9139C15.9348 17.3946 15.5452 17.7842 15.0646 17.7842H9.83069C9.35007 17.7842 8.96045 17.3946 8.96045 16.9139Z" fill="#1F4DCC"/>
</svg>
