<svg width="24" height="24" viewBox="0 0 24 24" fill="none" xmlns="http://www.w3.org/2000/svg">
<path d="M14.6958 9.68078L10.1058 5.09078C9.91843 4.90453 9.66498 4.79999 9.40079 4.79999C9.13661 4.79999 8.88315 4.90453 8.69579 5.09078C8.60206 5.18374 8.52767 5.29434 8.4769 5.4162C8.42613 5.53806 8.39999 5.66877 8.39999 5.80078C8.39999 5.93279 8.42613 6.0635 8.4769 6.18536C8.52767 6.30722 8.60206 6.41782 8.69579 6.51078L13.2958 11.0908C13.3895 11.1837 13.4639 11.2943 13.5147 11.4162C13.5655 11.5381 13.5916 11.6688 13.5916 11.8008C13.5916 11.9328 13.5655 12.0635 13.5147 12.1854C13.4639 12.3072 13.3895 12.4178 13.2958 12.5108L8.69579 17.0908C8.50749 17.2778 8.40117 17.5319 8.40024 17.7972C8.3993 18.0626 8.50382 18.3175 8.69079 18.5058C8.87777 18.6941 9.13189 18.8004 9.39726 18.8013C9.66262 18.8023 9.91749 18.6978 10.1058 18.5108L14.6958 13.9208C15.2576 13.3583 15.5732 12.5958 15.5732 11.8008C15.5732 11.0058 15.2576 10.2433 14.6958 9.68078Z" fill="#262626"/>
</svg>
