<svg width="24" height="24" viewBox="0 0 24 24" fill="none" xmlns="http://www.w3.org/2000/svg">
<path d="M9.27735 13.9206L13.8674 18.5106C14.0547 18.6968 14.3082 18.8014 14.5724 18.8014C14.8365 18.8014 15.09 18.6968 15.2774 18.5106C15.3711 18.4176 15.4455 18.307 15.4962 18.1851C15.547 18.0633 15.5732 17.9326 15.5732 17.8006C15.5732 17.6686 15.547 17.5379 15.4962 17.416C15.4455 17.2941 15.3711 17.1835 15.2774 17.0906L10.6774 12.5106C10.5836 12.4176 10.5092 12.307 10.4585 12.1851C10.4077 12.0633 10.3816 11.9326 10.3816 11.8006C10.3816 11.6686 10.4077 11.5379 10.4585 11.416C10.5092 11.2941 10.5836 11.1835 10.6774 11.0906L15.2774 6.51057C15.4657 6.32359 15.572 6.06947 15.5729 5.80411C15.5738 5.53874 15.4693 5.28387 15.2824 5.09557C15.0954 4.90726 14.8413 4.80095 14.5759 4.80001C14.3105 4.79907 14.0557 4.90359 13.8674 5.09057L9.27735 9.68057C8.71555 10.2431 8.39999 11.0056 8.39999 11.8006C8.39999 12.5956 8.71555 13.3581 9.27735 13.9206Z" fill="#262626"/>
</svg>
