<svg width="24" height="24" viewBox="0 0 24 24" fill="none" xmlns="http://www.w3.org/2000/svg">
<g clip-path="url(#clip0_349_6783)">
<path fill-rule="evenodd" clip-rule="evenodd" d="M6.86176 7.04769C6.47823 7.04769 6.16732 7.3586 6.16732 7.74213V16.631C6.16732 17.0146 6.47823 17.3255 6.86176 17.3255H15.7507C16.1342 17.3255 16.4451 17.0146 16.4451 16.631V14.9644C16.4451 14.7342 16.6316 14.5477 16.8618 14.5477C17.0919 14.5477 17.2784 14.7342 17.2784 14.9644V16.631C17.2784 17.4748 16.5944 18.1588 15.7507 18.1588H6.86176C6.01799 18.1588 5.33398 17.4748 5.33398 16.631V7.74213C5.33398 6.89837 6.01799 6.21436 6.86176 6.21436H8.52843C8.75855 6.21436 8.9451 6.4009 8.9451 6.63102C8.9451 6.86114 8.75855 7.04769 8.52843 7.04769H6.86176Z" fill="#262626"/>
<path fill-rule="evenodd" clip-rule="evenodd" d="M16.1669 6.20727C16.1126 6.15303 16.0247 6.15303 15.9705 6.20726L15.3881 6.78964L16.7036 8.10515L17.286 7.52277C17.3402 7.46853 17.3402 7.38059 17.286 7.32635L16.1669 6.20727ZM16.1143 8.6944L14.7988 7.3789L10.3087 11.869L11.6242 13.1845L16.1143 8.6944ZM10.8092 13.548L9.9452 12.684L9.65719 13.836L10.8092 13.548ZM15.3812 5.61801C15.7609 5.23833 16.3765 5.23833 16.7561 5.61801L17.8752 6.7371C18.2549 7.11677 18.2549 7.73235 17.8752 8.11203L11.8372 14.15L9.36525 14.768C8.97871 14.8646 8.62859 14.5145 8.72522 14.128L9.34322 11.656L15.3812 5.61801Z" fill="#262626"/>
</g>
<defs>
<clipPath id="clip0_349_6783">
<rect width="13.3333" height="13.3333" fill="white" transform="translate(5.33398 5.33325)"/>
</clipPath>
</defs>
</svg>
