<svg width="24" height="24" viewBox="0 0 24 24" fill="none" xmlns="http://www.w3.org/2000/svg">
<g clip-path="url(#clip0_1940_44614)">
<path d="M12.08 2C12.08 2 12.04 2 12.02 2C8.3 2 4.98 4.07 3.3 7.25V4.26C3.3 3.9 3.01 3.61 2.65 3.61C2.29 3.61 2 3.9 2 4.26V9.08C2 9.63 2.41 10.06 2.94 10.14C2.99 10.14 3.04 10.17 3.09 10.17H7.23C7.59 10.17 7.88 9.88 7.88 9.52C7.88 9.16 7.59 8.87 7.23 8.87H3.99C5.23 5.55 8.41 3.3 12.02 3.3H12.07C16.64 3.33 20.45 7.06 20.58 11.62C20.64 13.96 19.78 16.16 18.16 17.84C16.54 19.52 14.35 20.43 12.02 20.43C10.47 20.43 8.95 20.01 7.63 19.22C7.06 18.88 6.54 18.48 6.07 18.02C5.81 17.77 5.4 17.78 5.15 18.03C4.9 18.29 4.91 18.7 5.16 18.95C5.7 19.48 6.31 19.94 6.96 20.33C8.49 21.24 10.24 21.73 12.02 21.73C14.71 21.73 17.22 20.67 19.09 18.74C20.96 16.81 21.95 14.27 21.88 11.58C21.73 6.33 17.34 2.03 12.08 2Z" fill="#262626"/>
<path d="M11.77 6.69C11.41 6.69 11.12 6.98 11.12 7.34V12.7L13.93 14.91C14.05 15 14.19 15.05 14.33 15.05C14.52 15.05 14.71 14.96 14.84 14.8C15.06 14.52 15.01 14.11 14.73 13.89L12.42 12.07V7.34C12.42 6.98 12.13 6.69 11.77 6.69Z" fill="#262626"/>
</g>
<defs>
<clipPath id="clip0_1940_44614">
<rect width="19.88" height="19.73" fill="white" transform="translate(2 2)"/>
</clipPath>
</defs>
</svg>
