<svg width="24" height="24" viewBox="0 0 24 24" fill="none" xmlns="http://www.w3.org/2000/svg">
<path fill-rule="evenodd" clip-rule="evenodd" d="M12 20.5C16.6944 20.5 20.5 16.6944 20.5 12C20.5 7.30558 16.6944 3.5 12 3.5C7.30558 3.5 3.5 7.30558 3.5 12C3.5 16.6944 7.30558 20.5 12 20.5ZM12 22C17.5228 22 22 17.5228 22 12C22 6.47715 17.5228 2 12 2C6.47715 2 2 6.47715 2 12C2 17.5228 6.47715 22 12 22Z" fill="#1F4DCC"/>
<path d="M11.0682 16.2259V9.6804H12.8835V16.2259H11.0682ZM11.9801 8.83665C11.7102 8.83665 11.4787 8.74716 11.2855 8.56818C11.0952 8.38636 11 8.16903 11 7.91619C11 7.66619 11.0952 7.4517 11.2855 7.27273C11.4787 7.09091 11.7102 7 11.9801 7C12.25 7 12.4801 7.09091 12.6705 7.27273C12.8636 7.4517 12.9602 7.66619 12.9602 7.91619C12.9602 8.16903 12.8636 8.38636 12.6705 8.56818C12.4801 8.74716 12.25 8.83665 11.9801 8.83665Z" fill="#1F4DCC"/>
</svg>
