<svg width="24" height="24" viewBox="0 0 24 24" fill="none" xmlns="http://www.w3.org/2000/svg">
<rect x="2" y="3" width="20" height="5" fill="#5280FF"/>
<path fill-rule="evenodd" clip-rule="evenodd" d="M3.37014 3.18015C2.71293 3.18015 2.18015 3.71293 2.18015 4.37014V7.40903H21.8198V4.37014C21.8198 3.71293 21.2871 3.18015 20.6299 3.18015H3.37014ZM2.18015 11.8445V8.58918H6.46805V11.8445H2.18015ZM6.46805 13.0246H2.18015V16.4667H6.46805V13.0246ZM7.6482 16.4667V13.0246H11.4148V16.4667H7.6482ZM12.595 16.4667V13.0246H16.3518V16.4667H12.595ZM16.3518 17.6468H12.595V20.8923H16.3518V17.6468ZM17.532 20.8923V17.6468H21.8198V19.7023C21.8198 20.3595 21.2871 20.8923 20.6299 20.8923H17.532ZM17.532 16.4667V13.0246H21.8198V16.4667H17.532ZM17.532 11.8445H21.8198V8.58918H17.532V11.8445ZM16.3518 8.58918H12.595V11.8445H16.3518V8.58918ZM7.6482 17.6468H11.4148V20.8923H7.6482V17.6468ZM11.4148 11.8445V8.58918H7.6482V11.8445H11.4148ZM6.46805 17.6468H2.18015V19.7023C2.18015 20.3595 2.71293 20.8923 3.37014 20.8923H6.46805V17.6468ZM1 4.37014C1 3.06115 2.06115 2 3.37014 2H20.6299C21.9389 2 23 3.06115 23 4.37014V19.7023C23 21.0113 21.9389 22.0724 20.6299 22.0724H3.37014C2.06115 22.0724 1 21.0113 1 19.7023V4.37014Z" fill="#262626"/>
</svg>
